<svg xmlns="http://www.w3.org/2000/svg" width="685" height="445.588" viewBox="0 0 685 445.588">
  <g id="Group_33" data-name="Group 33" transform="translate(-40 -17)">
    <text id="GET_VERIFIED" data-name="GET VERIFIED" transform="translate(40 120)" fill="#e2f2e4" font-size="108" font-family="SFProDisplay-Bold, SF Pro Display" font-weight="700"><tspan x="0" y="0">GET VERIFIED</tspan></text>
    <g id="Group_8" data-name="Group 8" transform="translate(267.911 157.412)">
      <g id="Group_2" data-name="Group 2" transform="translate(0)">
        <g id="Group_9" data-name="Group 9" transform="translate(0)">
          <g id="Group_7" data-name="Group 7" transform="translate(76.625 82.211)">
            <g id="Group_1" data-name="Group 1" transform="translate(0)">
              <path id="Icon_material-verified-user" data-name="Icon material-verified-user" d="M-195.084,81.078l-25.309-25.309,8.922-8.922,16.388,16.325,41.7-41.7,8.921,8.985Z" transform="translate(220.393 -21.474)" fill="#e2f2e4"/>
            </g>
          </g>
          <path id="certificatealt" d="M200.568,114.441l28.61,30.7-40.232,12.521,9.537,40.826-37.85-8.647,30.4,96.859a17.776,17.776,0,0,1-8.341,15.5l-15.5-15.5-18.48,18.48a18.692,18.692,0,0,1-10.732-6.705,18.291,18.291,0,0,1-4.171-11.775L114.441,225.3,95.367,286.7A18.376,18.376,0,0,1,91.2,298.47a18.6,18.6,0,0,1-10.732,6.705L61.985,286.7l-15.5,15.5a17.776,17.776,0,0,1-8.341-15.5l30.4-96.859L30.7,198.483l9.537-40.826L0,145.136l28.61-30.7L0,83.745,40.232,71.53,30.7,30.7l40.826,9.537L83.745,0l30.7,28.61L145.136,0l12.521,40.232L198.483,30.7l-9.537,40.826,40.232,12.215ZM114.593,57.22A55.248,55.248,0,0,0,74.064,74.056a55.248,55.248,0,0,0-16.836,40.529,55.248,55.248,0,0,0,16.836,40.529,55.248,55.248,0,0,0,40.529,16.836,55.248,55.248,0,0,0,40.529-16.836,55.248,55.248,0,0,0,16.835-40.529,55.248,55.248,0,0,0-16.835-40.529A55.248,55.248,0,0,0,114.593,57.22Z" fill="#48b5d6"/>
        </g>
      </g>
    </g>
  </g>
</svg>
