<svg xmlns="http://www.w3.org/2000/svg" width="397" height="72" viewBox="0 0 397 72">
  <g id="Group_34" data-name="Group 34" transform="translate(0 -0.294)">
    <text id="GET_VERIFIED" data-name="GET VERIFIED" transform="translate(0 53.294)" fill="#e2f2e4" font-size="53" font-family="AvenirNext-Bold, Avenir Next" font-weight="700"><tspan x="0" y="0">GET VERIFIED</tspan></text>
    <g id="Group_8" data-name="Group 8" transform="translate(363.686 14.358)">
      <g id="Group_2" data-name="Group 2" transform="translate(0)">
        <g id="Group_9" data-name="Group 9">
          <g id="Group_7" data-name="Group 7" transform="translate(11.139 11.95)">
            <g id="Group_1" data-name="Group 1" transform="translate(0)">
              <path id="Icon_material-verified-user" data-name="Icon material-verified-user" d="M-216.714,30.139l-3.679-3.679,1.3-1.3,2.382,2.373,6.061-6.061,1.3,1.306Z" transform="translate(220.393 -21.474)" fill="#e2f2e4"/>
            </g>
          </g>
          <path id="certificatealt" d="M29.155,16.636,33.314,21.1l-5.848,1.82,1.386,5.935L23.35,27.6l4.419,14.08a2.584,2.584,0,0,1-1.213,2.253L24.3,41.675l-2.686,2.686a2.717,2.717,0,0,1-1.56-.975,2.659,2.659,0,0,1-.606-1.712l-2.816-8.924-2.773,8.924a2.671,2.671,0,0,1-.606,1.712,2.7,2.7,0,0,1-1.56.975L9.01,41.675,6.758,43.928a2.584,2.584,0,0,1-1.213-2.253L9.964,27.6l-5.5,1.257,1.386-5.935L0,21.1l4.159-4.462L0,12.174,5.848,10.4,4.462,4.463,10.4,5.85,12.174,0l4.462,4.159L21.1,0l1.82,5.848,5.935-1.386L27.466,10.4l5.848,1.776Zm-12.5-8.318a8.031,8.031,0,0,0-5.891,2.447,8.031,8.031,0,0,0-2.447,5.891,8.031,8.031,0,0,0,2.447,5.891A8.031,8.031,0,0,0,16.658,25a8.031,8.031,0,0,0,5.891-2.447A8.031,8.031,0,0,0,25,16.656a8.031,8.031,0,0,0-2.447-5.891A8.031,8.031,0,0,0,16.658,8.318Z" fill="#48b5d6"/>
        </g>
      </g>
    </g>
  </g>
</svg>
