<svg id="map" xmlns="http://www.w3.org/2000/svg" width="30.828" height="43.274" viewBox="0 0 30.828 43.274">
  <path id="Path_11" data-name="Path 11" d="M33.414,16.407A15.4,15.4,0,0,0,20.993,40.923l9.944,17.224a2.62,2.62,0,0,0,.2.349l.021.036,0,0a2.77,2.77,0,0,0,4.365.171l.025.014.1-.164a2.884,2.884,0,0,0,.367-.637l9.751-16.89A15.394,15.394,0,0,0,33.414,16.414Zm-.153,23.23a7.594,7.594,0,1,1,7.594-7.594,7.589,7.589,0,0,1-7.594,7.594Z" transform="translate(-18.002 -16.407)" fill="#fbbc05"/>
</svg>
