<svg xmlns="http://www.w3.org/2000/svg" width="37.339" height="37.341" viewBox="0 0 37.339 37.341">
  <path id="phone" d="M36.822,31.05l-5.265,5.223a3.809,3.809,0,0,1-2.81,1.068c-4.436-.133-8.63-2.312-12.072-4.549C11.023,28.68,5.837,23.582,2.583,17.42,1.334,14.837-.131,11.54.009,8.657A3.833,3.833,0,0,1,1.078,5.809L6.343.547a1.742,1.742,0,0,1,2.85.475l4.235,8.031a2.332,2.332,0,0,1-.475,2.651l-1.94,1.939a.956.956,0,0,0-.2.554c.744,2.879,3,5.533,4.987,7.359s4.13,4.3,6.907,4.886a1.094,1.094,0,0,0,1.009-.1l2.256-2.294a2.576,2.576,0,0,1,2.731-.4h.039l7.639,4.51a1.839,1.839,0,0,1,.436,2.888Z" transform="translate(0 0)" fill="#34a853"/>
</svg>
