<svg xmlns="http://www.w3.org/2000/svg" width="287" height="168.872" viewBox="0 0 287 168.872">
  <g id="Group_52" data-name="Group 52" transform="translate(-1437 -2447)">
    <g id="Group_55" data-name="Group 55">
      <g id="Group_39" data-name="Group 39" transform="translate(-336 1033.71)">
        <path id="Path_12" data-name="Path 12" d="M312.028,138.1h-100.9v-2.08H165.371v2.08H64.052a6.825,6.825,0,0,0-6.825,6.825V283.091a6.825,6.825,0,0,0,6.825,6.825H312.028a6.825,6.825,0,0,0,6.825-6.825V144.923a6.825,6.825,0,0,0-6.825-6.825Z" transform="translate(1726.172 1277.272)" fill="#046c95"/>
        <path id="Path_16" data-name="Path 16" d="M0,0H243.326V137.261H0Z" transform="translate(1792.549 1427.432)" fill="#e2f2e4"/>
        <circle id="Ellipse_3" data-name="Ellipse 3" cx="2.496" cy="2.496" r="2.496" transform="translate(1911.509 1418.697)" fill="#b3e0ee"/>
        <path id="Path_13" data-name="Path 13" d="M224.145,187.015H50.406V49.754Z" transform="translate(1742.143 1377.678)" fill="#046c95" opacity="0.1"/>
        <path id="Path_15" data-name="Path 15" d="M309.273,516.724H285.526v-1.711a.339.339,0,0,0-.339-.339h-8.142a.339.339,0,0,0-.339.339v1.711h-5.089v-1.711a.339.339,0,0,0-.339-.339h-8.142a.339.339,0,0,0-.339.339v1.711h-5.089v-1.711a.339.339,0,0,0-.339-.339h-8.142a.339.339,0,0,0-.339.339v1.711H243.8v-1.711a.339.339,0,0,0-.339-.339h-8.142a.339.339,0,0,0-.339.339v1.711H229.89v-1.711a.339.339,0,0,0-.339-.339h-8.142a.339.339,0,0,0-.339.339v1.711h-5.089v-1.711a.339.339,0,0,0-.339-.339H207.5a.339.339,0,0,0-.339.339v1.711h-5.089v-1.711a.339.339,0,0,0-.339-.339H137.955a.339.339,0,0,0-.339.339v1.711h-5.089v-1.711a.339.339,0,0,0-.339-.339h-8.142a.339.339,0,0,0-.339.339v1.711h-5.089v-1.711a.339.339,0,0,0-.339-.339h-8.142a.339.339,0,0,0-.339.339v1.711h-5.089v-1.711a.339.339,0,0,0-.339-.339H96.228a.339.339,0,0,0-.339.339v1.711H90.8v-1.711a.339.339,0,0,0-.339-.339H82.319a.339.339,0,0,0-.339.339v1.711H76.891v-1.711a.339.339,0,0,0-.339-.339H68.41a.339.339,0,0,0-.339.339v1.711H62.982v-1.711a.339.339,0,0,0-.339-.339H54.5a.339.339,0,0,0-.339.339v1.711H38.556a8.142,8.142,0,0,0-8.142,8.142v3.682a8.142,8.142,0,0,0,8.142,8.142H309.273a8.142,8.142,0,0,0,8.142-8.142v-3.682a8.142,8.142,0,0,0-8.142-8.142Z" transform="translate(1742.585 1045.473)" fill="#046c95"/>
      </g>
      <g id="Group_51" data-name="Group 51">
        <text id="Verified_Successfully" data-name="Verified Successfully" transform="translate(1580 2568.872)" fill="#046c95" font-size="10" font-family="AvenirNext-DemiBold, Avenir Next" font-weight="300"><tspan x="-47.085" y="0">Verified Successfully</tspan></text>
        <g id="Group_50" data-name="Group 50" transform="translate(1523 2472.144)">
          <g id="certificate-outline-badged" transform="translate(0 12.973)">
            <path id="Path_3" data-name="Path 3" d="M7,12H65.429v3.98H7Z" transform="translate(10.144 2.913)" fill="#292d4f"/>
            <path id="Path_4" data-name="Path 4" d="M7,16H50.189v3.98H7Z" transform="translate(10.137 8.855)" fill="#292d4f"/>
            <path id="Path_5" data-name="Path 5" d="M7,23H31.5v3.98H7Z" transform="translate(10.132 19.254)" fill="#292d4f"/>
            <path id="Path_6" data-name="Path 6" d="M37,17.23A15.822,15.822,0,0,0,26.052,44.6l-4.826,5.9,2.239,8.981,9.105-11.1a15.573,15.573,0,0,0,8.832,0l9.105,11.1,2.239-8.981-4.826-5.9A15.822,15.822,0,0,0,36.973,17.23ZM37,43.8A10.722,10.722,0,1,1,47.869,33.077,10.722,10.722,0,0,1,37,43.8Z" transform="translate(59.3 9.579)" fill="#292d4f"/>
            <path id="Path_7" data-name="Path 7" d="M32,14.967V25.174A23.2,23.2,0,0,1,36.976,30.7V12.37A16.909,16.909,0,0,1,32,14.967Z" transform="translate(76.814 0.054)" fill="#292d4f"/>
            <path id="Path_8" data-name="Path 8" d="M35.9,60.677V10.971h80.608A11.489,11.489,0,0,1,115.307,6H35.9c-4.741,0-4.609,2.225-4.609,4.971V60.677c0,2.745-.132,4.971,4.609,4.971h64.384l2.447-1.74,3.992-2.833-.386-.4Z" transform="translate(-31.291 -6)" fill="#292d4f"/>
          </g>
          <path id="bxs-certification" d="M3.064,19.367a1.282,1.282,0,0,0,.6.784l2.467,1.426v2.841a1.292,1.292,0,0,0,1.292,1.292h2.841l1.426,2.468a1.3,1.3,0,0,0,1.765.473l2.466-1.424,2.468,1.426a1.3,1.3,0,0,0,1.765-.473l1.425-2.467H24.42a1.292,1.292,0,0,0,1.292-1.292V21.58l2.467-1.426a1.29,1.29,0,0,0,.473-1.765l-1.425-2.468,1.426-2.467a1.292,1.292,0,0,0-.473-1.765l-2.467-1.426V7.423a1.292,1.292,0,0,0-1.292-1.292H21.581L20.155,3.665a1.3,1.3,0,0,0-.784-.6,1.284,1.284,0,0,0-.981.129L15.922,4.617,13.455,3.191a1.289,1.289,0,0,0-1.765.471L10.264,6.13H7.424A1.292,1.292,0,0,0,6.132,7.422v2.841L3.665,11.69a1.293,1.293,0,0,0-.471,1.765l1.425,2.467L3.193,18.388a1.3,1.3,0,0,0-.129.979Z" transform="translate(84.963 -3.016)" fill="#292d4f"/>
          <g id="Group_11" data-name="Group 11" transform="translate(93.413 7.193)">
            <g id="Group_1" data-name="Group 1" transform="translate(0 0)">
              <path id="Icon_material-verified-user" data-name="Icon material-verified-user" d="M-215.435,33.15l-4.958-4.958,1.748-1.748,3.21,3.2,8.168-8.168,1.748,1.76Z" transform="translate(220.393 -21.474)" fill="#e2f2e4"/>
            </g>
          </g>
        </g>
      </g>
    </g>
  </g>
</svg>
